<?xml version="1.0" encoding="UTF-8"?>
<svg xmlns="http://www.w3.org/2000/svg" viewBox="0 0 420 720" width="420" height="720">
  
    <defs>
      <pattern id="bgPattern" x="0" y="0" width="20" height="20" patternUnits="userSpaceOnUse">
        <line x1="0" y1="0" x2="20" y2="20" stroke="#5b6cff" stroke-width="0.5" opacity="0.1" />
        <line x1="20" y1="0" x2="0" y2="20" stroke="#5b6cff" stroke-width="0.5" opacity="0.1" />
      </pattern>
    </defs>
    <rect x="0" y="0" width="420" height="720" fill="#f8f9fa" />
    <rect x="0" y="0" width="420" height="720" fill="url(#bgPattern)" />
  

  <!-- 外边框 -->
  <rect x="10" y="10" width="400" height="700" rx="20" ry="20"
        fill="none" stroke="#5b6cff" stroke-width="3" />
  <rect x="18" y="18" width="384" height="684" rx="16" ry="16"
        fill="none" stroke="#7b5cff" stroke-width="2" />

  <!-- 顶部装饰 -->
  <rect x="30" y="30" width="360" height="2" fill="#f2c14e" opacity="0.5" />
  <circle cx="210" cy="60" r="8" fill="#f2c14e" />

  <!-- 中央图案区域 -->
  <g id="centralPattern">
    <polygon points="210,214 221.68020382293838,255.74580684534243 261.60087784289,238.8496730773236 236.24517975740534,274.0097089861758 274.34524220400033,294.6863816411167 231.04700003044462,296.7844224400867 238.63632678175884,339.4639452815597 210,306.9201234567901 181.36367321824116,339.4639452815597 188.9529999695554,296.7844224400867 145.65475779599964,294.6863816411168 183.75482024259466,274.0097089861758 158.39912215711,238.8496730773236 198.31979617706162,255.74580684534246 " fill="#f2c14e" opacity="0.8" stroke="#f2c14e" stroke-width="2" />
  </g>

  <!-- 底部装饰 -->
  <rect x="30" y="688" width="360" height="2" fill="#f2c14e" opacity="0.5" />

  <!-- 卡片名称 -->
  <text x="210" y="650" font-family="Arial, sans-serif" font-size="20" font-weight="bold"
        text-anchor="middle" fill="#5b6cff">The Star</text>
  <text x="210" y="675" font-family="Arial, sans-serif" font-size="16"
        text-anchor="middle" fill="#7b5cff">星星</text>
</svg>